HIERARCHY
ROOT hip
{
  OFFSET 0.00112043 5.09927 -9.65472
  CHANNELS 6 Xposition Yposition Zposition Zrotation Xrotation Yrotation
  JOINT abdomen
  {
    OFFSET 0 -1.186 -1.5018
    CHANNELS 3 Zrotation Xrotation Yrotation
    JOINT abdomen2
    {
      OFFSET 0 9.964 0.2134
      CHANNELS 3 Zrotation Xrotation Yrotation
      JOINT chest
      {
        OFFSET 0 13.134 -3.2573
        CHANNELS 3 Zrotation Xrotation Yrotation
        JOINT neck
        {
          OFFSET 0 20.686 -1.6905
          CHANNELS 3 Zrotation Xrotation Yrotation
          JOINT head
          {
            OFFSET 0 7.238 -0.1237
            CHANNELS 3 Zrotation Xrotation Yrotation
            End Site
            {
              OFFSET 0 0 0
            }
          }
        }
        JOINT lCollar
        {
          OFFSET 1.7069 20.075 5.0056
          CHANNELS 3 Zrotation Xrotation Yrotation
          JOINT lShldr
          {
            OFFSET 13.6458 -0.047 -4.849
            CHANNELS 3 Zrotation Xrotation Yrotation
            JOINT lForeArm
            {
              OFFSET 28.3255 -0.9759 2.2888
              CHANNELS 3 Zrotation Xrotation Yrotation
              JOINT lHand
              {
                OFFSET 22.1583 -0.53 10.8316
                CHANNELS 3 Zrotation Xrotation Yrotation
                JOINT lThumb1
                {
                  OFFSET 0.786 0.112 2.5817
                  CHANNELS 3 Zrotation Xrotation Yrotation
                  JOINT lThumb2
                  {
                    OFFSET 0.3601 -0.878 4.2331
                    CHANNELS 3 Zrotation Xrotation Yrotation
                    JOINT lThumb2_End
                    {
                      OFFSET 1.8127 -1.216 2.2227
                      CHANNELS 3 Zrotation Xrotation Yrotation
                      End Site
                      {
                        OFFSET 0.0181 -0.0122 0.0222
                      }
                    }
                  }
                }
                JOINT lCarpal1
                {
                  OFFSET 0.9571 1.114 1.7695
                  CHANNELS 3 Zrotation Xrotation Yrotation
                  JOINT lIndex1
                  {
                    OFFSET 4.1246 0.487 4.1451
                    CHANNELS 3 Zrotation Xrotation Yrotation
                    JOINT lIndex2
                    {
                      OFFSET 3.4052 -1.454 2.7682
                      CHANNELS 3 Zrotation Xrotation Yrotation
                      JOINT lIndex2_End
                      {
                        OFFSET 1.4531 -1.795 1.2713
                        CHANNELS 3 Zrotation Xrotation Yrotation
                        End Site
                        {
                          OFFSET 0.0145 -0.0179 0.0127
                        }
                      }
                    }
                  }
                  JOINT lMid1
                  {
                    OFFSET 5.6954 0.21 2.1184
                    CHANNELS 3 Zrotation Xrotation Yrotation
                    JOINT lMid2
                    {
                      OFFSET 3.9766 -1.54 2.3863
                      CHANNELS 3 Zrotation Xrotation Yrotation
                      JOINT lMid2_End
                      {
                        OFFSET 1.4042 -1.926 1.125
                        CHANNELS 3 Zrotation Xrotation Yrotation
                        End Site
                        {
                          OFFSET 0.014 -0.0193 0.0113
                        }
                      }
                    }
                  }
                }
                JOINT lCarpal2
                {
                  OFFSET 2.0956 0.66 -0.3894
                  CHANNELS 3 Zrotation Xrotation Yrotation
                  JOINT lRing1
                  {
                    OFFSET 5.0395 -0.09 2.4971
                    CHANNELS 3 Zrotation Xrotation Yrotation
                    JOINT lRing2
                    {
                      OFFSET 3.7921 -1.552 1.4806
                      CHANNELS 3 Zrotation Xrotation Yrotation
                      JOINT lRing2_End
                      {
                        OFFSET 1.4655 -1.808 0.9609
                        CHANNELS 3 Zrotation Xrotation Yrotation
                        End Site
                        {
                          OFFSET 0.0147 -0.0181 0.0096
                        }
                      }
                    }
                  }
                  JOINT lPinky1
                  {
                    OFFSET 4.9141 -1.269 0.3591
                    CHANNELS 3 Zrotation Xrotation Yrotation
                    JOINT lPinky2
                    {
                      OFFSET 3.1477 -1.685 0.8462
                      CHANNELS 3 Zrotation Xrotation Yrotation
                      JOINT lPinky2_End
                      {
                        OFFSET 0.8055 -1.585 0.7955
                        CHANNELS 3 Zrotation Xrotation Yrotation
                        End Site
                        {
                          OFFSET 0.0081 -0.0158 0.008
                        }
                      }
                    }
                  }
                }
              }
            }
          }
        }
        JOINT rCollar
        {
          OFFSET -1.7069 20.075 5.0056
          CHANNELS 3 Zrotation Xrotation Yrotation
          JOINT rShldr
          {
            OFFSET -13.6458 -0.047 -4.849
            CHANNELS 3 Zrotation Xrotation Yrotation
            JOINT rForeArm
            {
              OFFSET -28.3255 -0.9759 2.2888
              CHANNELS 3 Zrotation Xrotation Yrotation
              JOINT rHand
              {
                OFFSET -22.1583 -0.53 10.8316
                CHANNELS 3 Zrotation Xrotation Yrotation
                JOINT rThumb1
                {
                  OFFSET -0.786 0.112 2.5817
                  CHANNELS 3 Zrotation Xrotation Yrotation
                  JOINT rThumb2
                  {
                    OFFSET -0.3601 -0.878 4.2331
                    CHANNELS 3 Zrotation Xrotation Yrotation
                    JOINT rThumb2_End
                    {
                      OFFSET -1.8127 -1.216 2.2227
                      CHANNELS 3 Zrotation Xrotation Yrotation
                      End Site
                      {
                        OFFSET -0.0181 -0.0122 0.0222
                      }
                    }
                  }
                }
                JOINT rCarpal1
                {
                  OFFSET -0.9571 1.114 1.7695
                  CHANNELS 3 Zrotation Xrotation Yrotation
                  JOINT rIndex1
                  {
                    OFFSET -4.1246 0.487 4.1451
                    CHANNELS 3 Zrotation Xrotation Yrotation
                    JOINT rIndex2
                    {
                      OFFSET -3.4052 -1.454 2.7682
                      CHANNELS 3 Zrotation Xrotation Yrotation
                      JOINT rIndex2_End
                      {
                        OFFSET -1.4531 -1.795 1.2713
                        CHANNELS 3 Zrotation Xrotation Yrotation
                        End Site
                        {
                          OFFSET -0.0145 -0.018 0.0127
                        }
                      }
                    }
                  }
                  JOINT rMid1
                  {
                    OFFSET -5.6954 0.21 2.1184
                    CHANNELS 3 Zrotation Xrotation Yrotation
                    JOINT rMid2
                    {
                      OFFSET -3.9766 -1.54 2.3863
                      CHANNELS 3 Zrotation Xrotation Yrotation
                      JOINT rMid2_End
                      {
                        OFFSET -1.4042 -1.926 1.125
                        CHANNELS 3 Zrotation Xrotation Yrotation
                        End Site
                        {
                          OFFSET -0.014 -0.0193 0.0113
                        }
                      }
                    }
                  }
                }
                JOINT rCarpal2
                {
                  OFFSET -2.0956 0.66 -0.3894
                  CHANNELS 3 Zrotation Xrotation Yrotation
                  JOINT rRing1
                  {
                    OFFSET -5.0395 -0.09 2.4971
                    CHANNELS 3 Zrotation Xrotation Yrotation
                    JOINT rRing2
                    {
                      OFFSET -3.7921 -1.552 1.4806
                      CHANNELS 3 Zrotation Xrotation Yrotation
                      JOINT rRing2_End
                      {
                        OFFSET -1.4655 -1.808 0.9609
                        CHANNELS 3 Zrotation Xrotation Yrotation
                        End Site
                        {
                          OFFSET -0.0147 -0.0181 0.0096
                        }
                      }
                    }
                  }
                  JOINT rPinky1
                  {
                    OFFSET -4.9141 -1.269 0.3592
                    CHANNELS 3 Zrotation Xrotation Yrotation
                    JOINT rPinky2
                    {
                      OFFSET -3.1477 -1.685 0.8462
                      CHANNELS 3 Zrotation Xrotation Yrotation
                      JOINT rPinky2_End
                      {
                        OFFSET -0.8055 -1.585 0.7955
                        CHANNELS 3 Zrotation Xrotation Yrotation
                        End Site
                        {
                          OFFSET -0.0081 -0.0158 0.008
                        }
                      }
                    }
                  }
                }
              }
            }
          }
        }
      }
    }
  }
  JOINT lThigh
  {
    OFFSET 8.367 -8.2066 0.5982
    CHANNELS 3 Zrotation Xrotation Yrotation
    JOINT lShin
    {
      OFFSET 2.1923 -43.463 -0.4932
      CHANNELS 3 Zrotation Xrotation Yrotation
      JOINT lFoot
      {
        OFFSET 0.7333 -45.8593 -2.6451
        CHANNELS 3 Zrotation Xrotation Yrotation
        End Site
        {
          OFFSET 2.6618 -4.2699 12.3931
        }
      }
    }
  }
  JOINT rThigh
  {
    OFFSET -8.367 -8.2066 0.5982
    CHANNELS 3 Zrotation Xrotation Yrotation
    JOINT rShin
    {
      OFFSET -2.1923 -43.463 -0.4931
      CHANNELS 3 Zrotation Xrotation Yrotation
      JOINT rFoot
      {
        OFFSET -0.7333 -45.8593 -2.6451
        CHANNELS 3 Zrotation Xrotation Yrotation
        End Site
        {
          OFFSET -2.6618 -4.2699 12.3931
        }
      }
    }
  }
}
MOTION
Frames:	5
Frame Time:	0.0333333
0 91.7903 2.51682 0 0 -0 0 0 -0 0 0 -0 0 0 -0 0 0 -0 0 0 -0 0 0 -0 1.66051 0.0835086 5.75766 -0.0175111 0.895433 15.7816 7.95139e-016 -1.98785e-016 -0 5.46658e-016 -3.97569e-016 -0 5.96354e-016 0 -0 3.97569e-016 1.98785e-016 9.54166e-015 1.49089e-016 -3.97569e-016 -0 6.4605e-016 0 3.18055e-015 5.96354e-016 0 3.18055e-015 8.94531e-016 -1.98785e-016 6.36111e-015 6.4605e-016 0 3.18055e-015 5.96354e-016 0 3.18055e-015 8.94531e-016 -1.98785e-016 6.36111e-015 1.49089e-016 -3.97569e-016 -0 6.4605e-016 0 3.18055e-015 5.96354e-016 0 3.18055e-015 8.94531e-016 -1.98785e-016 6.36111e-015 6.4605e-016 0 3.18055e-015 5.96354e-016 0 3.18055e-015 8.94531e-016 -1.98785e-016 6.36111e-015 0 0 -0 -1.4496 0.0636048 -5.0245 -1.74811 1.20616 -16.8394 -1.19271e-015 1.98785e-016 -3.18055e-015 -3.97569e-016 1.98785e-016 -3.18055e-015 -2.98177e-016 1.98785e-016 -3.18055e-015 -2.98177e-016 3.97569e-016 -0 4.96962e-016 0 -6.36111e-015 -9.93923e-017 3.97569e-016 -0 -8.94531e-016 5.96354e-016 -0 -3.97569e-016 3.97569e-016 -0 -9.93923e-017 3.97569e-016 -0 -8.94531e-016 5.96354e-016 -0 -3.97569e-016 3.97569e-016 -0 4.96962e-016 0 -6.36111e-015 -9.93923e-017 3.97569e-016 -0 -8.94531e-016 5.96354e-016 -0 -3.97569e-016 3.97569e-016 -0 -9.93923e-017 3.97569e-016 -0 -8.94531e-016 5.96354e-016 -0 -3.97569e-016 3.97569e-016 -0 -4.66111 -0.998717 0.12318 0.00986924 1.54847 0.176523 4.65186 -0.572283 -0.254274 4.66111 -0.998765 -0.123176 -0.00986867 1.54869 -0.176537 -4.65186 -0.572453 0.25427 
6.93123 37.7919 44.2381 -43.5783 -33.0364 119.809 0.0203149 -0.371939 0.0311182 0.0407763 -0.743815 0.0623523 0.0407919 -0.743824 0.0623575 0.000121287 -11.1749 -5.58002e-006 -0.0426456 -16.7255 -0.0176082 20.81 11.7004 -11.5545 -23.9515 -77.2542 -31.5654 -23.169 -9.59892 -48.6618 -0.135633 8.53198 -20.656 1.60093e-006 -4.72659e-007 -2.7339e-007 1.12827e-006 -2.07359e-006 -3.97431e-008 1.60093e-006 -4.72659e-007 -2.7339e-007 4.77083e-015 -4.77083e-015 1.27222e-014 1.60093e-006 -4.72659e-007 -2.7339e-007 1.12827e-006 -2.07359e-006 -3.97431e-008 1.60093e-006 -4.72659e-007 -2.7339e-007 1.60093e-006 -4.72659e-007 -2.7339e-007 1.12827e-006 -2.07359e-006 -3.97431e-008 1.60093e-006 -4.72659e-007 -2.7339e-007 4.77083e-015 -4.77083e-015 1.27222e-014 1.60093e-006 -4.72659e-007 -2.7339e-007 1.12827e-006 -2.07359e-006 -3.97431e-008 1.60093e-006 -4.72659e-007 -2.7339e-007 1.60093e-006 -4.72659e-007 -2.7339e-007 1.12827e-006 -2.07359e-006 -3.97431e-008 1.60093e-006 -4.72659e-007 -2.7339e-007 -20.8263 11.7046 11.5399 24.7386 -77.1407 33.0769 21.8519 -11.2886 47.4584 0.232633 7.97056 20.8467 -9.56885e-007 -1.43573e-006 4.39372e-008 -3.1698e-006 -1.35401e-006 -8.88865e-006 -1.49721e-006 2.18816e-008 -5.95729e-006 -8.82781e-032 -1.59028e-015 -3.18055e-015 -9.56885e-007 -1.43573e-006 4.39372e-008 -3.1698e-006 -1.35401e-006 -8.88865e-006 -1.49721e-006 2.18816e-008 -5.95729e-006 -9.56885e-007 -1.43573e-006 4.39372e-008 -3.1698e-006 -1.35401e-006 -8.88865e-006 -1.49721e-006 2.18816e-008 -5.95729e-006 -8.82781e-032 -1.59028e-015 -3.18055e-015 -9.56885e-007 -1.43573e-006 4.39372e-008 -3.1698e-006 -1.35401e-006 -8.88865e-006 -1.49721e-006 2.18816e-008 -5.95729e-006 -9.56885e-007 -1.43573e-006 4.39372e-008 -3.1698e-006 -1.35401e-006 -8.88865e-006 -1.49721e-006 2.18816e-008 -5.95729e-006 69.1607 -42.953 67.0583 -167.814 84.0962 173.189 9.70001 17.7611 1.74453 -69.1683 -42.9378 -67.0724 168.062 84.1006 -173.433 -9.71459 17.758 -1.73112 
-2.033 11.9376 64.9926 43.3492 -70.9565 -135.039 0.0412932 -0.615425 0.0459292 0.0830615 -1.23101 0.092291 0.0830605 -1.23102 0.0922918 -0.000152278 -15.9189 -4.64709e-005 -0.0649479 -23.384 -0.0256281 31.8926 16.8964 -17.6003 -139.319 -61.9803 -148.024 -36.0935 2.46607 -74.1354 1.23597 11.1025 -30.4424 -3.37263e-006 -1.26267e-006 -5.27238e-007 4.00386e-006 1.69658e-006 -2.01816e-006 -1.20805e-006 -1.85902e-006 3.19645e-006 4.77083e-015 -4.77083e-015 3.18055e-015 -3.37263e-006 -1.26267e-006 -5.27238e-007 4.00386e-006 1.69658e-006 -2.01816e-006 -1.20805e-006 -1.85902e-006 3.19645e-006 -3.37263e-006 -1.26267e-006 -5.27238e-007 4.00386e-006 1.69658e-006 -2.01816e-006 -1.20805e-006 -1.85902e-006 3.19645e-006 4.77083e-015 -4.77083e-015 3.18055e-015 -3.37263e-006 -1.26267e-006 -5.27238e-007 4.00386e-006 1.69658e-006 -2.01816e-006 -1.20805e-006 -1.85902e-006 3.19645e-006 -3.37263e-006 -1.26267e-006 -5.27238e-007 4.00386e-006 1.69658e-006 -2.01816e-006 -1.20805e-006 -1.85902e-006 3.19645e-006 -31.9097 16.9044 17.5767 138.921 -61.8709 148.42 35.5938 0.449195 73.1523 -1.01576 10.2996 30.6676 -7.95139e-015 0 -0 4.12348e-006 4.58414e-006 4.61463e-007 -1.60203e-006 -1.07858e-006 -3.0693e-007 -6.36111e-015 -3.18055e-015 3.18055e-015 -3.18055e-015 9.54166e-015 9.54166e-015 4.12348e-006 4.58414e-006 4.61463e-007 -1.60203e-006 -1.07858e-006 -3.0693e-007 -3.18055e-015 9.54166e-015 9.54166e-015 4.12348e-006 4.58414e-006 4.61463e-007 -1.60203e-006 -1.07858e-006 -3.0693e-007 -6.36111e-015 -3.18055e-015 3.18055e-015 -3.18055e-015 9.54166e-015 9.54166e-015 4.12348e-006 4.58414e-006 4.61463e-007 -1.60203e-006 -1.07858e-006 -3.0693e-007 -3.18055e-015 9.54166e-015 9.54166e-015 4.12348e-006 4.58414e-006 4.61463e-007 -1.60203e-006 -1.07858e-006 -3.0693e-007 121.742 -29.5314 106.324 -177.63 42.0103 -171.819 11.2459 29.0825 4.9268 -121.742 -29.5093 -106.328 177.673 42.0098 171.767 -11.2699 29.0828 -4.90559 
-0.00123596 17.6282 59.0829 -0.00886773 -71.0095 179.991 0.0355482 -0.731007 0.0429562 0.0716534 -1.462 0.0863765 0.0716534 -1.46199 0.0863765 9.01688e-007 -14.232 -2.09331e-006 -0.0588641 -19.9747 -0.0212564 29.6011 16.4909 -17.249 -133.143 -69.4158 -141.782 -33.6992 -1.3288 -68.7757 0.908794 11.194 -28.6072 -3.27075e-006 3.66005e-006 2.05758e-006 -4.77083e-015 3.18055e-015 -0 -1.76556e-031 -1.59028e-015 -6.36111e-015 1.59028e-015 -3.18055e-015 3.18055e-015 -3.27075e-006 3.66005e-006 2.05758e-006 1.59028e-015 -3.18055e-015 6.36111e-015 -1.59028e-015 -6.36111e-015 -3.18055e-015 -3.27075e-006 3.66005e-006 2.05758e-006 1.59028e-015 -3.18055e-015 6.36111e-015 -1.59028e-015 -6.36111e-015 -3.18055e-015 1.59028e-015 -3.18055e-015 3.18055e-015 -3.27075e-006 3.66005e-006 2.05758e-006 1.59028e-015 -3.18055e-015 6.36111e-015 -1.59028e-015 -6.36111e-015 -3.18055e-015 -3.27075e-006 3.66005e-006 2.05758e-006 1.59028e-015 -3.18055e-015 6.36111e-015 -1.59028e-015 -6.36111e-015 -3.18055e-015 -29.6065 16.5001 17.2218 132.651 -69.2854 142.066 33.0138 -3.31189 67.7705 -0.719601 10.4344 28.8463 -6.36111e-015 1.59028e-015 6.36111e-015 6.36111e-015 7.95139e-016 -0 -6.36111e-015 7.95139e-016 3.18055e-015 -3.18055e-015 -7.95139e-016 3.18055e-015 -1.59028e-015 2.38542e-015 9.54166e-015 3.18055e-015 5.56597e-015 6.36111e-015 -3.97569e-015 2.38542e-015 -0 -1.59028e-015 2.38542e-015 9.54166e-015 3.18055e-015 5.56597e-015 6.36111e-015 -3.97569e-015 2.38542e-015 -0 -3.18055e-015 -7.95139e-016 3.18055e-015 -1.59028e-015 2.38542e-015 9.54166e-015 3.18055e-015 5.56597e-015 6.36111e-015 -3.97569e-015 2.38542e-015 -0 -1.59028e-015 2.38542e-015 9.54166e-015 3.18055e-015 5.56597e-015 6.36111e-015 -3.97569e-015 2.38542e-015 -0 110.336 -34.5059 97.9288 -177.075 51.2784 -174.264 10.8064 25.7731 3.75843 -110.336 -34.4852 -97.9354 177.127 51.2784 174.208 -10.8282 25.7715 -3.73909 
-0.0012073 17.6539 58.9677 -0.00886773 -71.0095 179.991 0.0351425 -0.869771 0.0432279 0.0709537 -1.73956 0.0870045 0.0709538 -1.73954 0.0870045 7.69816e-006 -13.7142 4.16134e-006 -0.057587 -18.3925 -0.0189657 29.8339 17.0695 -18.096 -133.38 -69.4627 -141.955 -33.6953 -1.50734 -68.6025 0.944194 11.6485 -28.8994 1.86366e-006 -4.05857e-006 3.07114e-007 -1.36707e-006 2.56563e-006 7.66203e-007 1.59028e-015 4.77083e-015 -0 1.59028e-015 -1.59028e-015 6.36111e-015 1.86366e-006 -4.05857e-006 3.07114e-007 -1.36707e-006 2.56563e-006 7.66203e-007 4.77083e-015 3.18055e-015 -0 1.86366e-006 -4.05857e-006 3.07114e-007 -1.36707e-006 2.56563e-006 7.66203e-007 4.77083e-015 3.18055e-015 -0 1.59028e-015 -1.59028e-015 6.36111e-015 1.86366e-006 -4.05857e-006 3.07114e-007 -1.36707e-006 2.56563e-006 7.66203e-007 4.77083e-015 3.18055e-015 -0 1.86366e-006 -4.05857e-006 3.07114e-007 -1.36707e-006 2.56563e-006 7.66203e-007 4.77083e-015 3.18055e-015 -0 -29.8297 17.0806 18.0641 132.882 -69.3313 142.232 33.0028 -3.4881 67.5958 -0.754113 10.8819 29.1527 3.97569e-015 -7.15625e-015 -3.18055e-015 7.95139e-016 7.95139e-016 -9.54166e-015 -7.95139e-016 -9.54166e-015 -0 3.97569e-015 2.38542e-015 -3.18055e-015 3.18055e-015 -1.59028e-015 -6.36111e-015 -3.97569e-015 -4.77083e-015 -0 2.38542e-015 -1.59028e-015 -0 3.18055e-015 -1.59028e-015 -6.36111e-015 -3.97569e-015 -4.77083e-015 -0 2.38542e-015 -1.59028e-015 -0 3.97569e-015 2.38542e-015 -3.18055e-015 3.18055e-015 -1.59028e-015 -6.36111e-015 -3.97569e-015 -4.77083e-015 -0 2.38542e-015 -1.59028e-015 -0 3.18055e-015 -1.59028e-015 -6.36111e-015 -3.97569e-015 -4.77083e-015 -0 2.38542e-015 -1.59028e-015 -0 110.122 -34.5511 97.7967 -177.074 51.2692 -174.276 10.7983 25.7892 3.75169 -110.122 -34.531 -97.8038 177.126 51.2691 174.22 -10.8201 25.7876 -3.73233 
